<svg width="45" height="40" viewBox="0 0 45 40" fill="none" xmlns="http://www.w3.org/2000/svg">
<g clip-path="url(#clip0_569_2616)">
<path d="M5.10887 24.6036C5.10887 26.2633 5.47314 27.5375 5.94928 28.3084C6.57354 29.3181 7.50464 29.7459 8.45388 29.7459C9.67821 29.7459 10.7983 29.442 12.9567 26.4568C14.6859 24.064 16.7234 20.7054 18.0944 18.5999L20.4161 15.0327C22.0289 12.5553 23.8956 9.80126 26.036 7.93453C27.7833 6.41091 29.6682 5.56445 31.5651 5.56445C34.7499 5.56445 37.7836 7.41003 40.1053 10.8714C42.6461 14.6623 43.8795 19.4372 43.8795 24.3648C43.8795 27.2942 43.3021 29.4466 42.3196 31.1471C41.3704 32.7916 39.5203 34.4346 36.4081 34.4346V29.7459C39.0729 29.7459 39.738 27.2972 39.738 24.4948C39.738 20.5014 38.8069 16.0696 36.7557 12.9029C35.3001 10.6568 33.4137 9.28432 31.3384 9.28432C29.0938 9.28432 27.2875 10.9772 25.2575 13.9958C24.1783 15.5995 23.0703 17.5539 21.8264 19.7592L20.4569 22.1852C17.7059 27.0629 17.0091 28.1739 15.6336 30.0074C13.2227 33.2178 11.164 34.4346 8.45388 34.4346C5.23886 34.4346 3.20585 33.0425 1.94675 30.9445C0.918913 29.235 0.414062 26.9919 0.414062 24.4359L5.10887 24.6036Z" fill="#0081FB"/>
<path d="M4.11523 11.2024C6.26765 7.88465 9.37384 5.56445 12.9365 5.56445C14.9997 5.56445 17.0509 6.17511 19.1927 7.92395C21.5356 9.83603 24.0326 12.9845 27.1479 18.1736L28.2649 20.0358C30.9615 24.5281 32.4957 26.8392 33.3935 27.929C34.5483 29.3287 35.357 29.7459 36.4075 29.7459C39.0723 29.7459 39.7374 27.2972 39.7374 24.4948L43.879 24.3648C43.879 27.2942 43.3016 29.4466 42.3191 31.1471C41.3698 32.7916 39.5197 34.4346 36.4075 34.4346C34.4727 34.4346 32.7587 34.0144 30.8632 32.2263C29.4061 30.8538 27.7026 28.4157 26.3921 26.224L22.4939 19.7123C20.538 16.4444 18.7438 14.0078 17.7054 12.9044C16.5884 11.7179 15.1524 10.285 12.8609 10.285C11.0063 10.285 9.43128 11.5864 8.11322 13.5771L4.11523 11.2024Z" fill="url(#paint0_linear_569_2616)"/>
<path d="M12.8615 10.285C11.0068 10.285 9.43183 11.5864 8.11378 13.5771C6.25007 16.39 5.10887 20.58 5.10887 24.6036C5.10887 26.2633 5.47314 27.5375 5.94927 28.3084L1.94675 30.9445C0.918913 29.235 0.414062 26.9919 0.414062 24.4359C0.414062 19.7879 1.68979 14.9435 4.11579 11.2024C6.26821 7.88465 9.3744 5.56445 12.9371 5.56445L12.8615 10.285Z" fill="url(#paint1_linear_569_2616)"/>
</g>
<defs>
<linearGradient id="paint0_linear_569_2616" x1="9.63382" y1="23.2493" x2="39.5621" y2="24.7608" gradientUnits="userSpaceOnUse">
<stop stop-color="#0064E1"/>
<stop offset="0.4" stop-color="#0064E1"/>
<stop offset="0.83" stop-color="#0073EE"/>
<stop offset="1" stop-color="#0082FB"/>
</linearGradient>
<linearGradient id="paint1_linear_569_2616" x1="7.21593" y1="26.5747" x2="7.21593" y2="15.5405" gradientUnits="userSpaceOnUse">
<stop stop-color="#0082FB"/>
<stop offset="1" stop-color="#0064E0"/>
</linearGradient>
<clipPath id="clip0_569_2616">
<rect width="44.2553" height="40" fill="white"/>
</clipPath>
</defs>
</svg>
